<?xml version="1.0" encoding="UTF-8" standalone="no"?>
<!-- Created with Inkscape (http://www.inkscape.org/) -->

<svg
   xmlns:dc="http://purl.org/dc/elements/1.1/"
   xmlns:cc="http://creativecommons.org/ns#"
   xmlns:rdf="http://www.w3.org/1999/02/22-rdf-syntax-ns#"
   xmlns:svg="http://www.w3.org/2000/svg"
   xmlns="http://www.w3.org/2000/svg"
   xmlns:sodipodi="http://sodipodi.sourceforge.net/DTD/sodipodi-0.dtd"
   xmlns:inkscape="http://www.inkscape.org/namespaces/inkscape"
   width="1500"
   height="500"
   id="svg2"
   version="1.1"
   inkscape:version="0.48.4 r9939"
   sodipodi:docname="New document 1">
  <defs
     id="defs4" />
  <sodipodi:namedview
     id="base"
     pagecolor="#ffffff"
     bordercolor="#666666"
     borderopacity="1.0"
     inkscape:pageopacity="0.0"
     inkscape:pageshadow="2"
     inkscape:zoom="0.82531851"
     inkscape:cx="682.63588"
     inkscape:cy="136.30988"
     inkscape:document-units="px"
     inkscape:current-layer="layer4"
     showgrid="true"
     showguides="true"
     inkscape:guide-bbox="true"
     inkscape:window-width="1855"
     inkscape:window-height="1056"
     inkscape:window-x="65"
     inkscape:window-y="24"
     inkscape:window-maximized="1">
    <inkscape:grid
       type="xygrid"
       id="grid4077"
       empspacing="5"
       visible="true"
       enabled="true"
       snapvisiblegridlinesonly="true" />
    <sodipodi:guide
       orientation="0,1"
       position="-90,110"
       id="guide4083" />
  </sodipodi:namedview>
  <metadata
     id="metadata7">
    <rdf:RDF>
      <cc:Work
         rdf:about="">
        <dc:format>image/svg+xml</dc:format>
        <dc:type
           rdf:resource="http://purl.org/dc/dcmitype/StillImage" />
        <dc:title></dc:title>
      </cc:Work>
    </rdf:RDF>
  </metadata>
  <g
     inkscape:label="Layer 1"
     inkscape:groupmode="layer"
     id="layer1"
     transform="translate(0,-552.36218)"
     style="display:inline" />
  <g
     inkscape:groupmode="layer"
     id="layer2"
     inkscape:label="Mountains 1"
     transform="translate(0,-552.36218)"
     style="display:inline">
    <path
       style="fill:none;stroke:#000000;stroke-width:0;stroke-linecap:butt;stroke-linejoin:miter;stroke-miterlimit:4;stroke-opacity:1;stroke-dasharray:none"
       d="M 0,390 140,230 250,350 400,120 560,260 640,170 780,300 950,40 l 270,300 130,-190 150,240 0,110 -1500,0 z"
       id="path4079"
       inkscape:connector-curvature="0"
       transform="translate(0,552.36218)"
       sodipodi:nodetypes="cccccccccccccc" />
    <path
       style="fill:#cccccc;stroke:none"
       d="m 0,390 0,0 70.470639,-78.77956 69.362561,-79.25146 4.72944,4.83225 c 2.60119,2.65773 27.22724,29.45658 54.72456,59.553 27.49732,30.09641 50.30899,54.81588 50.69259,54.93216 0.38361,0.11628 34.21911,-51.27398 75.19001,-114.20057 49.11135,-75.4294 74.98698,-114.22225 75.94372,-113.85511 0.79816,0.30628 36.57742,31.30062 79.50946,68.87631 42.93206,37.57569 78.49016,68.4732 79.01803,68.66114 0.52786,0.18793 18.69054,-19.58616 40.36151,-43.94242 21.67098,-24.35627 39.76945,-44.28412 40.21882,-44.28412 0.44939,0 31.87907,28.85253 69.84374,64.11672 37.96467,35.2642 69.52414,63.95524 70.13214,63.75787 0.60801,-0.19737 38.91254,-58.16271 85.12117,-128.81187 46.20863,-70.64915 84.43033,-128.479065 84.93711,-128.510915 0.50677,-0.03185 60.3644,66.017465 133.017,146.776275 72.6525,80.75879 133.1974,147.96264 134.5441,149.3419 l 2.4486,2.50773 64.6245,-94.51799 c 6.0224,-8.80822 11.8664,-17.34501 17.4211,-25.44943 27.2281,-39.72677 47.5035,-69.06485 47.756,-69.06174 0.8806,0.0111 148.9353,234.68696 149.9332,237.30983 0.495,1.30136 0,7.02213 0,50 l 0,60 -1500,0 0,0 z"
       id="path4081"
       inkscape:connector-curvature="0"
       transform="translate(0,552.36218)"
       sodipodi:nodetypes="ccccsssssscsssssssccssccscccc" />
  </g>
  <g
     inkscape:groupmode="layer"
     id="layer4"
     inkscape:label="3D panel 1"
     style="display:inline">
    <path
       style="fill:#a7a7a7;stroke:#000000;stroke-width:0;stroke-linecap:butt;stroke-linejoin:miter;stroke-miterlimit:4;stroke-opacity:1;stroke-dasharray:none;fill-opacity:1"
       d="m 1350,150 110,350 40,0 0,-110 z"
       id="path4113"
       inkscape:connector-curvature="0" />
    <path
       style="fill:#b6b6b6;fill-opacity:0.8538813;stroke:#000000;stroke-width:0;stroke-linecap:butt;stroke-linejoin:miter;stroke-miterlimit:4;stroke-opacity:1;stroke-dasharray:none"
       d="M 950,40 860,500 670,500 780,300 z"
       id="path4115"
       inkscape:connector-curvature="0" />
    <path
       style="fill:#acacac;fill-opacity:0.8538813;stroke:#000000;stroke-width:0;stroke-linecap:butt;stroke-linejoin:miter;stroke-miterlimit:4;stroke-opacity:1;stroke-dasharray:none"
       d="m 950,40 170,460 -260,0 z"
       id="path4885"
       inkscape:connector-curvature="0" />
    <path
       style="fill:#b7b7b7;stroke:#000000;stroke-width:0;stroke-linecap:butt;stroke-linejoin:miter;stroke-opacity:1;stroke-miterlimit:4;stroke-dasharray:none;fill-opacity:1"
       d="m 1340,240 -120,100 160,160 80,0 -85,-280 -5,0 z"
       id="path4929"
       inkscape:connector-curvature="0" />
    <path
       style="fill:#c1c1c1;fill-opacity:1;stroke:#ffffff;stroke-width:0;stroke-linecap:butt;stroke-linejoin:miter;stroke-miterlimit:4;stroke-opacity:1;stroke-dasharray:none"
       d="m 639,232 97,148 -66,120 -155,0 110,-286 z"
       id="path4931"
       inkscape:connector-curvature="0"
       sodipodi:nodetypes="cccccc" />
    <path
       style="fill:#c1c1c1;stroke:#000000;stroke-width:0;stroke-linecap:butt;stroke-linejoin:miter;stroke-opacity:1;stroke-miterlimit:4;stroke-dasharray:none;fill-opacity:1"
       d="M 155,295 285,500 55,500 135,270 z"
       id="path4933"
       inkscape:connector-curvature="0" />
    <path
       style="fill:#a7a7a7;fill-opacity:1;stroke:#000000;stroke-width:0;stroke-linecap:butt;stroke-linejoin:miter;stroke-miterlimit:4;stroke-opacity:1;stroke-dasharray:none"
       d="M 414.24742,158.79587 249.54845,351.95671 370,500 z"
       id="path4935"
       inkscape:connector-curvature="0"
       sodipodi:nodetypes="cccc" />
    <path
       style="fill:#b7b7b7;fill-opacity:1;stroke:#000000;stroke-width:0;stroke-linecap:butt;stroke-linejoin:miter;stroke-miterlimit:4;stroke-opacity:1;stroke-dasharray:none"
       d="M 414.16972,159.50183 370,500 559.47187,261 447.011,162.17706 z"
       id="path4937"
       inkscape:connector-curvature="0"
       sodipodi:nodetypes="ccccc" />
    <path
       style="fill:#ababab;fill-opacity:1;stroke:#000000;stroke-width:0;stroke-linecap:butt;stroke-linejoin:miter;stroke-miterlimit:4;stroke-opacity:1;stroke-dasharray:none"
       d="m 639,232 97,149 44,-81 -110,-101 -5,11 -5,5 -15,-10 z"
       id="path4939"
       inkscape:connector-curvature="0"
       sodipodi:nodetypes="cccccccc" />
    <path
       style="fill:#b1b1b1;stroke:#000000;stroke-width:0;stroke-linecap:butt;stroke-linejoin:miter;stroke-opacity:1;stroke-miterlimit:4;stroke-dasharray:none;fill-opacity:1"
       d="M 110,265 0,390 l 0,110 55,0 80,-230 -15,10 z"
       id="path4941"
       inkscape:connector-curvature="0" />
  </g>
  <g
     inkscape:groupmode="layer"
     id="layer3"
     inkscape:label="Mountain Apex 1"
     style="display:inline">
    <path
       style="fill:#f2f2f2;stroke:#000000;stroke-width:0;stroke-linecap:butt;stroke-linejoin:miter;stroke-miterlimit:4;stroke-opacity:1;stroke-dasharray:none;fill-opacity:1"
       d="m 140,230 -30,35 10,15 15,-10 20,25 5,-20 20,0 z"
       id="path4086"
       inkscape:connector-curvature="0"
       sodipodi:nodetypes="cccccccc" />
    <path
       style="fill:none;stroke:#000000;stroke-width:0;stroke-linecap:butt;stroke-linejoin:miter;stroke-miterlimit:4;stroke-opacity:1;stroke-dasharray:none"
       d="m 400,120 -25,40 20,10 20,-10 35,5 z"
       id="path4088"
       inkscape:connector-curvature="0"
       sodipodi:nodetypes="cccccc" />
    <path
       style="fill:none;stroke:#000000;stroke-width:0;stroke-linecap:butt;stroke-linejoin:miter;stroke-miterlimit:4;stroke-opacity:1;stroke-dasharray:none"
       d="M 640,170 674.24464,202.24716 660,220 l -15,-10 -5,25 -15,-20 -30,5 z"
       id="path4092"
       inkscape:connector-curvature="0"
       sodipodi:nodetypes="cccccccc" />
    <path
       style="fill:#eeeeee;stroke:#000000;stroke-width:0;stroke-linecap:butt;stroke-linejoin:miter;stroke-miterlimit:4;stroke-opacity:1;stroke-dasharray:none;fill-opacity:1"
       d="m 950,40 71.4981,80 L 975,110 l -20,20 -20,-10 -45,10 z"
       id="path4098"
       inkscape:connector-curvature="0"
       sodipodi:nodetypes="ccccccc" />
    <path
       style="fill:#ececec;fill-opacity:1;stroke:#000000;stroke-width:0;stroke-linecap:butt;stroke-linejoin:miter;stroke-miterlimit:4;stroke-opacity:1;stroke-dasharray:none"
       d="m 1350,150 50,80 -30,-10 -30,20 -10,-30 -19.0786,-0.8733 z"
       id="path4108"
       inkscape:connector-curvature="0"
       sodipodi:nodetypes="ccccccc" />
    <path
       style="fill:#f6f6f6;fill-opacity:1"
       d="m 385.53148,164.1838 c -4.46681,-2.3056 -8.60417,-5.19723 -8.60417,-5.63923 C 376.92731,157.43631 400.24084,123 401,123 c 1.08646,0 45.5684,38.52396 45.06289,39.02947 -0.26876,0.26876 -8.76416,0.0495 -17.01043,-1.17564 l -14.99322,-2.22745 -9.81478,4.94264 c -5.39813,2.71846 -9.98954,4.91207 -10.20314,4.87471 -0.2136,-0.0374 -4.04303,-1.95434 -8.50984,-4.25993 z"
       id="path4887"
       inkscape:connector-curvature="0"
       sodipodi:nodetypes="ssssscscs" />
    <path
       style="fill:#f3f3f3;fill-opacity:1"
       d="M 632.58266,222.98469 C 628.83695,217.88329 626,214 624.1194,213.78371 623.21032,213.82461 613,215 613,215 c 0,0 -11.76822,0.73131 -11.92288,0.58867 L 640,172 669.89126,199.38378 665,211 l -7.61214,6.19364 c 0,0 -3.70744,-2.95765 -6.98839,-5.1791 l -5.96535,-4.039 -0.76096,3.22004 c -0.41852,1.77102 -1.55276,7.23502 -2.52053,12.14222 l -1.75958,8.92218 z"
       id="path4889"
       inkscape:connector-curvature="0"
       sodipodi:nodetypes="ccccccccscsscc" />
  </g>
</svg>
